<svg xmlns="http://www.w3.org/2000/svg" version="1.1" xmlns:xlink="http://www.w3.org/1999/xlink" xmlns:svgjs="http://svgjs.dev/svgjs" width="1500" height="1682" viewBox="0 0 1500 1682"><g transform="matrix(1,0,0,1,-2.336338785046678,0)"><svg viewBox="0 0 321 360" data-background-color="#ffffff" preserveAspectRatio="xMidYMid meet" height="1682" width="1500" xmlns="http://www.w3.org/2000/svg" xmlns:xlink="http://www.w3.org/1999/xlink"><g id="tight-bounds" transform="matrix(1,0,0,1,0.5000234999999975,0)"><svg viewBox="0 0 320 360" height="360" width="320"><g><svg></svg></g><g><svg viewBox="0 0 320 360" height="360" width="320"><g><path transform="translate(-74.99272,-51.79039) scale(4.65793,4.65793)" d="M20.6 59.9l0.8 1-0.4-1.3c-0.1-0.6-0.8 0.1-0.4 0.3M21.5 59.3c0.3 0.5 0.6 1 0.6 1.5 0 0.7 0.6 1 1.1 1.2-0.7-0.8-1.1-3-1.7-2.7M59.9 16.9c1.7 0 3.3-0.2 5.1 0.2 4.4 1.1 8.1 3.3 10.6 6.4l7 11.2c0.3 2.8 0.9 5.9 0.8 9.3 0.7 0 0.6-1 1.4-1.2-0.8 2-1.2 4.5-1.4 7.4-0.5-1.6 0-4 0.1-5.3-0.7 1.1-1.1 0.3-1.1-0.2 0.1-0.8-0.3-0.7-0.6-1-1.1-1-1.8-2.1-2.6-3.8 0.5-1.3 0.6-3.2-1-4.2-0.5-0.3-1.1-0.8-1.4-1.6-0.4-1.1-1.1-2.4-0.9-4.1 0.1-0.5-1.5 1.1-2.4 0.4-3.9-2.7-7.8-5.8-12.5-8.4-2.5 0-4.3-0.9-5.2-2-0.8-1-0.2-2.3 1-2.4 0.7 0 1.5-0.2 2.1 0.2 0.1-0.4 0.5-0.9 1-0.9M50 14.6l0.2 0.1c1 0.2 1.5 1.6 2.6 1.1 0 0.7 0.1 1.4-0.1 1.9-0.3 0.8-1.2 0.8-1.9 0.8-6.7-0.4-10.6 2.4-14.7 4.8-1.1 0.7-2.3 1.2-3.2 2.1-4.3 4-9 7.7-10.1 15.1l-0.9 8.2c-0.1 0.9-1.1 1.8-0.9 2.9l0.7 4.9c-0.7-0.7-1.1 0.2-0.9 0.6 0.1 0.3 0.5 1.3 1.1 0.4 0.8 1.5 1.6 4.4 2.7 5.7 3.4 4 7.8 7.6 11.4 11.2 0.9-0.2 1.6-0.2 1.8-0.8 0.3 0.6-0.3 1.2-0.8 1.3 1.6 1 3.4 1.9 5.8 2.1 3.1 0.2 6 0.7 8.7 1.4 1.4-0.4 2.8-0.6 4.3-0.7 0.5 0 0.8-0.8 1.4-1l0.1-1c0.6 0.9 0.5-0.3 0.1-0.9 0.7 0.6 0.9 1.1 1.2 1.5 0-0.3 0.8-1.4 0.8-0.1l0.2-1.3c0.3-0.2 0.4 1.1 0.7 0.2 0.3-0.9 0.9-0.2 1.5-0.5-0.2 0.4-0.1 1.2 0.6 0.7l0.8-0.7c0.5 1.2 1.3 0.7 1.7 0.5 4.4-2.8 8.8-6.1 13-9.4l-0.1 1.3 0.5-1.6c0.5 0.5 0.9 0.1 1.1-0.2 0.6-1 1.4-2 2.7-2.9-1.6 4.3-3.5 7.7-5.9 10.5l-1 1.2c0 0.7-0.2 1.6-1 1.7-0.4 0.1-1.2-0.2-1.8 0.4-0.3 0.4 0.7 1.2-0.1 0.6-0.7-0.5-1.4 0-2.2 0.2-0.6 0.2 0.4 0.8 0.6 1.2 0.2 0.4 0.4 0.8 0.3 1.3l-1.1-1.2c-1.3 0.7-2.1 2-3.2 3-0.5 0.4-0.3 1.1-0.3 1.7-0.7 0-1.5-0.2-1.9 0.2-0.3 0.4-0.2 1-0.2 1.6-1-0.1-1.1-1.6-2-1.3-0.9 0.2-1.9 0.3-2.7 0.8 0.6 1.2-1 0.5-0.8 0.7-1.5-0.9-2.8-1.6-4.4-1-3.4-1.1-7.6-0.6-10.7-0.2 0-0.5 0.1-1-0.1-1.1-0.2 0.5-0.8 0.3-0.7 0.3-1.9-1.3-3.8-2.1-5.8-3.2-1.8 0.2-3.5-0.7-4-1.2-1.4-1.3-3-0.6-4.3-0.9-2.8-0.7-3.8-3.6-4.1-5.6-0.2-1-1-1.4-1.3-1.3-1.3-4.2-3.3-8-4.9-11.9-0.4-1-0.3-2-0.3-3.1 0.5 0.2 1 0.1 0.9-0.6-0.5-3.3-1.7-5.8-3-8.2 0.7-3.4 0.8-7.4 2.4-10.4 1.4-2.7 4-4.1 5.8-6.4 0.6-0.8 0.6-1.9 1.2-2.6 2-2 4-4.1 6.2-5.9 1-0.8 2.2 0 3.7-0.3 0.5-1.8 2.5-3.4 4.4-2.9 0.8 0.2 2.4-1.9 2.9-2.1 0.8-0.3 0.4 0.8 0.4 1.5 1.9-1.5 4.5-2.3 6.9-3.2" fill="#556970" fill-rule="nonzero" stroke="none" stroke-width="1" stroke-linecap="butt" stroke-linejoin="miter" stroke-miterlimit="10" stroke-dasharray="" stroke-dashoffset="0" font-family="none" font-weight="none" font-size="none" text-anchor="none" style="mix-blend-mode: normal" data-fill-palette-color="tertiary"></path></g><g transform="matrix(1,0,0,1,64,108.13084886021505)"><svg viewBox="0 0 192 143.7383022795699" height="143.7383022795699" width="192"><g><svg viewBox="0 0 192 143.7383022795699" height="143.7383022795699" width="192"><g><svg viewBox="0 0 192 143.7383022795699" height="143.7383022795699" width="192"><g transform="matrix(1,0,0,1,0,86.87808722580647)"><svg viewBox="0 0 192 56.86021505376344" height="56.86021505376344" width="192"><g id="textblocktransform"><svg viewBox="0 0 192 56.86021505376344" height="56.86021505376344" width="192" id="textblock"><g><svg viewBox="0 0 192 56.86021505376344" height="56.86021505376344" width="192"><g transform="matrix(1,0,0,1,0,0)"><svg width="192" viewBox="2.4399999999999995 -31.74 108.98 32.28" height="56.86021505376344" data-palette-color="#556970"><path d="M9.28-0.83L9.28-0.83Q12.65-0.83 13.82-2.88L13.82-2.88Q14.26-3.61 14.26-4.49L14.26-4.49Q14.26-6.54 11.28-8.01L11.28-8.01Q10.64-8.35 9.18-8.98L9.18-8.98Q5.18-10.64 3.86-12.11L3.86-12.11Q2.44-13.72 2.44-15.87L2.44-15.87Q2.44-19.24 6.15-20.61L6.15-20.61Q7.86-21.24 9.86-21.24L9.86-21.24Q13.09-21.24 15.43-19.87L15.43-19.87Q15.43-21.29 16.11-21.48L16.11-21.48Q16.41-21.53 16.75-21.53L16.75-21.53 16.75-15.43 15.48-15.43Q15.38-19.92 10.5-19.97L10.5-19.97Q6.84-19.97 5.96-17.82L5.96-17.82Q5.71-17.24 5.71-16.6L5.71-16.6Q5.71-14.5 8.74-13.04L8.74-13.04Q9.42-12.7 10.89-12.11L10.89-12.11Q14.84-10.5 16.16-9.03L16.16-9.03Q17.58-7.47 17.58-5.32L17.58-5.32Q17.58-1.37 13.38-0.05L13.38-0.05Q11.77 0.49 9.86 0.49L9.86 0.49Q6.35 0.44 3.76-1.27L3.76-1.27Q3.76 0 3.13 0.2L3.13 0.2Q2.83 0.24 2.44 0.24L2.44 0.24 2.44-7.18 3.81-7.18Q3.91-0.88 9.28-0.83ZM30.86-1.22L30.86-1.22 28.42-1.22 28.42-11.77Q28.42-16.21 31.49-18.21L31.49-18.21Q32.76-19.04 34.13-19.04L34.13-19.04Q37.11-19.04 38.28-16.26L38.28-16.26Q38.82-14.94 38.82-13.33L38.82-13.33 38.82-4.15Q38.82-1.9 37.74-1.46L37.74-1.46Q37.06-1.22 35.4-1.22L35.4-1.22 35.4 0 46.14 0Q46.14-1.07 45.41-1.17L45.41-1.17Q45.21-1.22 44.92-1.22L44.92-1.22 42.48-1.22 42.48-13.33Q42.48-18.65 38.96-20.56L38.96-20.56Q37.6-21.24 36.03-21.24L36.03-21.24Q32.42-21.24 29.98-18.6L29.98-18.6Q28.95-17.48 28.42-16.06L28.42-16.06 28.42-31.74 21.09-31.74 21.09-30.52 24.75-30.52 24.75-4.15Q24.75-1.9 23.48-1.46L23.48-1.46Q22.75-1.22 21.09-1.22L21.09-1.22 21.09 0 32.08 0Q32.08-1.07 31.35-1.17L31.35-1.17Q31.15-1.22 30.86-1.22ZM53.51-10.4L53.51-10.4Q53.51-17.97 57.66-19.63L57.66-19.63Q58.74-20.02 59.91-20.02L59.91-20.02Q65.33-20.02 66.21-13.18L66.21-13.18Q66.35-12.01 66.35-10.6L66.35-10.6Q66.35-2.39 61.86-0.98L61.86-0.98Q60.98-0.73 60.05-0.73L60.05-0.73Q55.12-0.73 53.85-6.59L53.85-6.59Q53.51-8.3 53.51-10.4ZM60.05-21.24L60.05-21.24Q55.37-21.24 52.24-18.02L52.24-18.02Q49.36-15.04 49.36-10.6L49.36-10.6Q49.36-4.44 53.85-1.37L53.85-1.37Q56.59 0.49 59.91 0.49L59.91 0.49Q64.59 0.49 67.67-2.83L67.67-2.83Q70.5-5.86 70.5-10.4L70.5-10.4Q70.5-16.55 65.96-19.53L65.96-19.53Q63.28-21.24 60.05-21.24ZM73.43-20.75L73.43-19.53 76.85-19.53 76.85-5.76Q77.19 0.34 82.46 0.54L82.46 0.54Q86.96 0.54 88.08-4.98L88.08-4.98Q88.08-5.03 88.08-5.08L88.08-5.08 86.76-5.32Q85.54-1.27 83.2-0.93L83.2-0.93Q80.56-1.03 80.51-4.69L80.51-4.69 80.51-19.53 88.08-19.53 88.08-20.75 80.51-20.75 80.51-26.42 76.85-25.39 76.85-20.75 73.43-20.75ZM94.42-10.4L94.42-10.4Q94.42-17.97 98.57-19.63L98.57-19.63Q99.65-20.02 100.82-20.02L100.82-20.02Q106.24-20.02 107.12-13.18L107.12-13.18Q107.27-12.01 107.27-10.6L107.27-10.6Q107.27-2.39 102.77-0.98L102.77-0.98Q101.89-0.73 100.97-0.73L100.97-0.73Q96.03-0.73 94.77-6.59L94.77-6.59Q94.42-8.3 94.42-10.4ZM100.97-21.24L100.97-21.24Q96.28-21.24 93.15-18.02L93.15-18.02Q90.27-15.04 90.27-10.6L90.27-10.6Q90.27-4.44 94.77-1.37L94.77-1.37Q97.5 0.49 100.82 0.49L100.82 0.49Q105.51 0.49 108.58-2.83L108.58-2.83Q111.42-5.86 111.42-10.4L111.42-10.4Q111.42-16.55 106.87-19.53L106.87-19.53Q104.19-21.24 100.97-21.24Z" opacity="1" transform="matrix(1,0,0,1,0,0)" fill="#556970" class="wordmark-text-0" data-fill-palette-color="primary" id="text-0"></path></svg></g></svg></g></svg></g></svg></g><g transform="matrix(1,0,0,1,56.71163096397435,0)"><svg viewBox="0 0 78.5767380720513 78.58081720430108" height="78.58081720430108" width="78.5767380720513"><g><svg xmlns="http://www.w3.org/2000/svg" viewBox="2 1.9968852367635428 60 60.003114763236454" x="0" y="0" height="78.58081720430108" width="78.5767380720513" class="icon-icon-0" data-fill-palette-color="accent" id="icon-0"><g fill="#aba944" data-fill-palette-color="accent"><g fill="#aba944" data-fill-palette-color="accent"><circle cx="46" cy="35" r="1.0" fill="#aba944" data-fill-palette-color="accent"></circle><circle cx="50" cy="35" r="1.0" fill="#aba944" data-fill-palette-color="accent"></circle><path d="M45.88 37.71A1 1 0 0 0 45.88 39.12 3 3 0 0 0 50.12 39.12 1 1 0 0 0 48.71 37.71 1 1 0 0 1 47.29 37.71 1 1 0 0 0 45.88 37.71" fill="#aba944" data-fill-palette-color="accent"></path><path d="M61 56H58V47A5 5 0 0 0 53 42H52.89A7 7 0 0 0 55 37V35.9A5 5 0 0 0 59 31V29A5 5 0 0 0 54 24H38A1 1 0 0 0 37 25V31A5 5 0 0 0 41 35.9V37A7 7 0 0 0 43.11 42H43A5 5 0 0 0 38 47V52H36A3 3 0 0 0 33 55V56H30V55A3 3 0 0 0 27 52H24.62L23.62 50H30A4 4 0 0 0 34 46V30A4 4 0 0 0 30 26H21V17.93A8 8 0 0 0 22 18 8 8 0 0 0 28 15.27V21A1 1 0 0 0 29 22H43A1 1 0 0 0 44 21V7A1 1 0 0 0 43 6H28.93A8 8 0 0 0 14 10 8.2 8.2 0 0 0 14.26 12H8A1 1 0 0 0 7 13V26H6A4 4 0 0 0 2 30V46A4 4 0 0 0 6 50H12.38L11.38 52H9A3 3 0 0 0 6 55V56H3A1 1 0 0 0 2 57V61A1 1 0 0 0 4 61V58H60V61A1 1 0 0 0 62 61V57A1 1 0 0 0 61 56M56 47V56H54V49A1 1 0 0 0 52 49V56H49V48.28L51.57 44H53A3 3 0 0 1 56 47M49.23 44L48 46.06 46.77 44ZM39 31V26H54A3 3 0 0 1 57 29V31A3 3 0 0 1 55 33.82V31A1 1 0 0 0 54 30H48.61A10.87 10.87 0 0 1 42.55 28.17 1 1 0 0 0 41.55 28.12 1 1 0 0 0 41 29V33.82A3 3 0 0 1 39 31M43 37V30.72A12.9 12.9 0 0 0 48.61 32H53V37A5 5 0 0 1 43 37M40 47A3 3 0 0 1 43 44H44.43L47 48.28V52.18A3 3 0 0 0 46 52H44V49A1 1 0 0 0 42 49V52H40ZM35.38 20H30.62L33 15.24zM37.62 20L38.5 18.24 39.38 20ZM38 9A1 1 0 1 1 37 8 1 1 0 0 1 38 9M30 8H34.18A3 3 0 1 0 39.82 8H42V20H41.62L39.39 15.55A1 1 0 0 0 37.61 15.55L36.5 17.76 33.89 12.55A1 1 0 0 0 32.11 12.55L30 16.76ZM22 4A6 6 0 1 1 16 10 6 6 0 0 1 22 4M9 14H15.08A8.06 8.06 0 0 0 19 17.41V26H9ZM4 46V30A2 2 0 0 1 6 28H30A2 2 0 0 1 32 30V46A2 2 0 0 1 30 48H23V41A5 5 0 0 0 13 41V48H6A2 2 0 0 1 4 46M14.89 49.45A1 1 0 0 0 15 49V41A3 3 0 0 1 21 41V49A1 1 0 0 0 21.1 49.42L22.38 52H13.62ZM8 56V55A1 1 0 0 1 9 54H27A1 1 0 0 1 28 55V56ZM35 55A1 1 0 0 1 36 54H46A1 1 0 0 1 47 55V56H35Z" fill="#aba944" data-fill-palette-color="accent"></path><path d="M19.47 13.85A1 1 0 0 0 20 14 1 1 0 0 0 20.45 13.89L26.45 10.89A1 1 0 0 0 26.45 9.11L20.45 6.11A1 1 0 0 0 19 7V13A1 1 0 0 0 19.47 13.85M21 8.62L23.76 10 21 11.38Z" fill="#aba944" data-fill-palette-color="accent"></path><path d="M16 17H12A1 1 0 0 0 12 19H16A1 1 0 0 0 16 17" fill="#aba944" data-fill-palette-color="accent"></path><path d="M16 21H12A1 1 0 0 0 12 23H16A1 1 0 0 0 16 21" fill="#aba944" data-fill-palette-color="accent"></path><path d="M55 12A3 3 0 0 0 58 9V5A3 3 0 0 0 52 5V9A3 3 0 0 0 55 12M54 5A1 1 0 0 1 56 5V9A1 1 0 0 1 54 9Z" fill="#aba944" data-fill-palette-color="accent"></path><path d="M54 15.92V18H51A1 1 0 0 0 51 20H59A1 1 0 0 0 59 18H56V15.92A7 7 0 0 0 62 9 1 1 0 0 0 60 9 5 5 0 0 1 50 9 1 1 0 0 0 48 9 7 7 0 0 0 54 15.92" fill="#aba944" data-fill-palette-color="accent"></path></g></g></svg><g></g></g></svg></g><g></g></svg></g></svg></g></svg></g></svg></g><defs></defs></svg><rect width="320" height="360" fill="none" stroke="none" visibility="hidden"></rect></g></svg></g></svg>